<?xml version="1.0" standalone="no"?>
<!DOCTYPE svg PUBLIC "-//W3C//DTD SVG 20010904//EN"
        "http://www.w3.org/TR/2001/REC-SVG-20010904/DTD/svg10.dtd">
<svg version="1.0" xmlns="http://www.w3.org/2000/svg"
     width="1023.000000pt" height="501.000000pt" viewBox="0 0 1023.000000 501.000000"
     preserveAspectRatio="xMidYMid meet">

    <g transform="translate(0.000000,501.000000) scale(0.100000,-0.100000)"
       fill="#000000" stroke="none">
        <path d="M3090 4873 c0 -3 53 -59 117 -124 64 -65 114 -121 112 -124 -3 -2
-32 0 -65 5 -104 17 -104 16 -39 -51 56 -56 58 -60 30 -53 -16 4 -40 11 -53
15 -81 30 -259 62 -376 67 -158 6 -161 16 52 -162 84 -70 160 -139 169 -152
14 -23 14 -26 -3 -45 -10 -11 -57 -39 -104 -61 -242 -115 -390 -190 -390 -198
0 -6 30 -10 68 -11 113 -1 113 -2 -17 -116 -64 -56 -142 -121 -173 -145 -32
-24 -58 -46 -58 -50 0 -4 18 -11 40 -14 22 -4 40 -9 40 -11 0 -3 -23 -37 -52
-77 -71 -97 -118 -192 -118 -239 l0 -38 29 20 c31 22 51 27 51 12 0 -5 -25
-82 -56 -171 -30 -89 -53 -164 -51 -167 3 -2 18 4 33 14 35 22 29 12 -41 -77
-100 -125 -202 -202 -374 -282 -58 -27 -128 -60 -156 -74 l-50 -24 85 5 c193
11 539 17 576 10 43 -8 61 -4 -241 -65 -60 -12 -117 -27 -125 -31 -16 -10 446
-6 1380 11 289 5 1049 12 1690 15 1222 6 1219 6 1705 -39 461 -43 570 -49 800
-43 260 7 515 38 675 83 52 14 111 30 130 35 53 13 203 10 315 -6 55 -8 109
-14 120 -14 11 -1 -32 28 -95 63 -216 121 -203 105 -198 224 l3 72 55 -45 c30
-25 59 -45 64 -45 18 0 -6 66 -49 134 -24 39 -80 111 -125 160 -44 49 -79 91
-77 93 8 7 99 -17 138 -37 21 -11 39 -16 39 -11 0 27 -173 159 -370 283 l-95
59 85 -6 c47 -3 96 -8 110 -11 22 -5 23 -4 10 9 -28 28 -159 77 -289 110 -95
23 -130 35 -126 45 3 8 -10 20 -33 30 -20 10 -59 31 -86 47 l-50 29 30 13 c83
35 269 5 472 -76 47 -19 52 -19 43 -3 -19 34 -97 101 -188 161 -90 59 -402
221 -505 262 -225 89 -300 116 -418 154 -233 73 -467 127 -715 166 -190 30
-603 38 -740 15 -189 -32 -316 -73 -425 -139 -80 -48 -110 -75 -110 -98 0 -27
11 -29 76 -14 96 23 137 20 173 -14 39 -36 40 -70 4 -127 -39 -62 -120 -100
-251 -118 l-44 -7 7 51 7 51 -68 -34 c-71 -35 -214 -90 -220 -84 -2 2 11 31
29 64 17 34 29 64 25 68 -3 3 -29 -5 -57 -19 -79 -41 -120 -36 -184 22 -60 52
-113 124 -144 192 -11 25 -36 78 -54 119 -29 65 -34 71 -40 50 -4 -13 -7 -39
-8 -56 -2 -60 -10 -50 -108 131 -30 55 -70 122 -90 149 -30 41 -38 46 -45 32
-5 -9 -8 -47 -6 -86 2 -38 2 -69 1 -69 -2 0 -44 40 -95 89 -93 89 -326 281
-341 281 -14 0 3 -41 54 -134 27 -49 47 -91 45 -94 -3 -2 -26 10 -53 28 -90
61 -354 180 -478 216 -115 33 -165 41 -165 27z m319 -124 c125 -51 274 -135
383 -216 69 -51 99 -82 143 -146 65 -97 70 -120 23 -106 -17 5 -36 13 -42 19
-5 5 -29 10 -53 10 -65 0 -135 45 -228 146 -44 48 -97 98 -118 111 -21 13 -83
61 -139 106 -55 45 -118 95 -139 110 -22 15 -39 29 -39 31 0 8 124 -31 209
-65z m683 -334 c40 -49 94 -121 118 -160 24 -38 74 -110 110 -159 36 -50 82
-117 102 -150 21 -34 38 -58 38 -55 0 21 -38 90 -84 152 -68 93 -131 193 -151
242 -16 38 -56 210 -47 201 9 -10 106 -173 154 -261 27 -49 54 -94 59 -99 5
-6 9 11 9 45 l0 54 34 -63 c42 -78 68 -112 149 -196 l64 -67 11 -94 c6 -51 18
-108 28 -127 20 -39 100 -141 91 -115 -12 32 19 18 61 -27 76 -83 91 -214 40
-343 -20 -50 -27 -58 -48 -57 -56 3 -289 55 -379 85 -108 36 -433 191 -531
254 -85 55 -109 67 -122 63 -6 -2 16 -19 48 -37 53 -29 53 -36 -1 -16 -45 17
109 -71 236 -135 209 -105 319 -149 441 -176 101 -21 211 -47 261 -61 28 -7
20 -18 -33 -47 -97 -53 -98 -53 -265 4 -27 10 -102 34 -165 54 -63 21 -178 59
-255 85 -77 27 -185 63 -240 81 -55 19 -111 40 -124 49 -14 9 -40 49 -58 89
-52 112 -89 120 -306 70 -49 -11 -90 -18 -92 -16 -7 7 153 137 220 178 39 24
90 47 115 51 45 7 32 7 -285 -9 -77 -4 -141 -6 -143 -6 -1 1 27 21 63 44 36
24 74 54 85 67 19 25 93 53 137 53 25 0 184 -49 256 -78 55 -23 55 -9 -2 27
-101 65 -270 116 -418 126 -34 2 -79 13 -100 23 -21 11 -74 27 -118 37 l-80
17 50 20 c71 29 211 35 294 13 102 -26 287 -125 384 -204 48 -39 94 -71 103
-71 28 0 93 -78 115 -135 33 -88 116 -140 208 -131 231 24 252 20 345 -65 56
-51 66 -54 43 -12 -21 38 -157 190 -204 229 -60 49 -188 122 -238 135 -22 6
-68 24 -102 40 -34 16 -64 29 -67 29 -5 0 -105 67 -131 88 -11 9 -14 10 -7 2
20 -23 14 -32 -12 -14 -14 8 -42 15 -63 14 -64 -3 -64 -3 -43 33 27 44 25 50
-8 19 -15 -15 -26 -30 -24 -34 5 -13 -6 -9 -56 16 -66 33 -75 46 -61 84 6 18
9 37 6 44 -4 8 -6 7 -6 -4 -1 -9 -5 -28 -11 -42 -8 -23 -12 -25 -34 -15 -14 7
-33 31 -44 58 -20 46 -20 46 -21 14 -1 -18 -6 -33 -11 -33 -14 0 -27 32 -44
109 -8 34 -17 66 -21 69 -14 14 -29 -22 -28 -66 l2 -47 -24 40 c-14 22 -25 55
-25 73 0 35 -15 43 -23 12 -6 -24 -20 -26 -41 -5 -8 8 -19 15 -23 15 -5 0 -22
14 -39 31 -31 33 -242 204 -287 234 -15 10 -26 20 -23 22 8 9 178 -18 286 -44
102 -25 242 -80 405 -160 248 -122 348 -176 397 -216 107 -88 137 -98 93 -33
-14 21 -20 34 -14 30 8 -4 9 1 4 17 -12 37 -27 51 -52 46 -13 -2 -31 4 -42 14
-11 11 -25 19 -31 19 -22 0 -9 15 15 16 14 1 25 -3 25 -10 0 -6 4 -6 9 3 7 11
17 11 57 2 41 -10 64 -27 139 -99 50 -48 110 -109 133 -137 23 -27 41 -45 42
-38 0 16 -107 151 -189 238 -46 48 -87 108 -133 193 -38 68 -68 127 -68 131 0
4 -20 40 -45 80 -25 40 -45 75 -45 77 0 16 240 -216 302 -291z m-732 135 c0
-13 -11 -13 -30 0 -12 8 -11 10 8 10 12 0 22 -4 22 -10z m2935 -190 c99 -11
234 -34 300 -50 66 -15 136 -31 155 -35 131 -25 477 -133 675 -212 177 -70
523 -252 532 -280 3 -9 -27 -11 -116 -6 -100 5 -128 3 -166 -11 -69 -27 -81
-60 -38 -100 l27 -25 -45 16 c-30 11 -80 17 -156 17 -108 1 -112 0 -154 -29
-56 -39 -89 -89 -89 -132 0 -73 42 -150 180 -327 38 -50 68 -91 66 -93 -5 -6
-102 64 -166 119 -30 25 -100 84 -156 130 -55 45 -152 128 -215 183 -63 56
-141 122 -174 148 -33 26 -96 77 -140 113 -95 78 -263 193 -351 240 -157 83
-452 172 -644 194 -75 9 -335 -2 -385 -16 -14 -4 -10 4 15 25 48 42 218 107
330 127 221 38 412 39 715 4z m-3196 -208 c1 -13 -6 -25 -16 -29 -58 -19 -182
-85 -187 -99 -4 -11 2 -26 15 -41 13 -12 21 -24 18 -26 -2 -2 -24 -18 -49 -34
-74 -51 -211 -196 -255 -270 -22 -38 -60 -103 -84 -144 -59 -97 -81 -178 -88
-319 -8 -158 14 -289 65 -382 20 -37 33 -71 29 -74 -10 -11 -66 45 -88 88 -22
43 -54 174 -64 261 -6 55 -8 58 -30 53 -22 -6 -23 -5 -14 37 5 23 28 97 50
165 23 68 39 126 36 129 -3 3 -22 -5 -41 -17 -20 -12 -36 -19 -36 -15 0 11 76
102 138 166 62 65 66 92 14 97 l-32 3 47 44 c27 24 52 44 56 45 13 0 222 192
225 206 4 17 -37 34 -81 34 -27 1 -18 7 58 43 50 23 137 65 195 93 101 49 105
50 112 30 3 -12 6 -31 7 -44z m2387 -46 c49 -44 49 -45 49 -106 l0 -62 -55
-51 c-30 -28 -82 -63 -116 -79 -106 -50 -297 -98 -428 -109 -117 -10 -119 -9
-143 13 -14 13 -31 35 -39 51 -8 15 -22 27 -32 27 -26 1 73 38 163 61 44 11
92 24 107 29 24 7 27 6 19 -8 -5 -10 -21 -28 -35 -41 -37 -35 -32 -42 15 -26
52 19 204 55 232 55 67 2 169 65 199 124 23 46 28 127 9 150 -27 32 8 15 55
-28z m212 -65 c20 -10 49 -21 63 -24 37 -9 129 -75 171 -122 43 -49 59 -77 64
-118 2 -18 8 -33 14 -35 9 -3 15 -82 6 -82 -2 0 -27 12 -54 26 -28 14 -66 28
-84 29 -18 2 -36 4 -39 4 -4 1 -10 17 -13 36 -10 54 -91 206 -137 258 -45 52
-45 55 9 28z m-937 -139 c-5 -9 -18 -25 -29 -35 -19 -17 -20 -17 -25 3 -4 16
2 24 26 35 18 7 33 14 35 14 1 1 -2 -7 -7 -17z m-1745 -18 c17 -7 36 -20 43
-28 15 -18 13 -19 -54 -36 -39 -10 -39 -10 13 -5 67 5 82 -1 82 -34 0 -33 -34
-67 -75 -76 -16 -4 -61 -23 -99 -42 -79 -41 -89 -36 -82 37 7 82 20 114 54
135 47 30 38 37 -19 14 -29 -11 -56 -18 -61 -17 -6 2 9 21 32 41 39 36 44 38
88 31 26 -4 61 -13 78 -20z m-171 -81 c-4 -10 -10 -58 -13 -107 l-5 -88 -43
-19 c-62 -28 -62 -39 -1 -18 l52 18 10 -52 c6 -29 18 -67 28 -86 21 -43 22
-61 1 -61 -9 0 -38 -11 -65 -24 -27 -14 -51 -21 -54 -16 -36 58 -59 242 -42
330 2 14 5 30 6 37 2 21 54 75 86 89 41 18 48 17 40 -3z m2561 -38 c-11 -8
-25 -15 -30 -15 -6 1 0 7 14 15 32 19 40 18 16 0z m2604 -9 c0 -2 -9 -2 -20 1
-11 3 -20 9 -20 15 0 5 9 4 20 -2 11 -6 20 -12 20 -14z m-4944 -101 c9 -20 20
-37 24 -40 10 -6 -4 -71 -20 -90 -6 -8 -8 -20 -4 -26 5 -9 1 -10 -14 -7 -13 4
-22 1 -22 -5 0 -7 -5 -4 -10 5 -6 9 -13 55 -16 101 -6 89 -7 88 38 96 4 0 15
-15 24 -34z m1032 6 c2 -14 -8 -34 -31 -58 -45 -46 -68 -40 -65 16 1 33 4 39
17 32 10 -6 20 -2 34 16 22 28 41 26 45 -6z m1532 -8 c155 -16 179 -22 194
-45 8 -13 5 -22 -17 -42 -15 -14 -27 -33 -27 -43 0 -10 -9 -29 -20 -43 -11
-14 -20 -28 -20 -32 0 -3 -14 -36 -30 -73 -26 -58 -32 -66 -46 -54 -17 14 -12
74 12 122 9 21 10 27 1 24 -6 -2 -21 -33 -32 -68 -21 -69 -60 -139 -77 -139
-5 0 -33 11 -60 25 -65 33 -74 25 -14 -10 25 -15 46 -30 46 -34 0 -25 -49 -96
-71 -102 l-24 -6 29 -12 c16 -6 26 -15 22 -19 -17 -17 -116 -45 -172 -49 -53
-4 -67 -1 -102 21 -56 35 -60 46 -18 46 57 0 146 52 184 107 61 88 81 123 72
123 -5 0 -11 -4 -15 -9 -3 -6 -28 1 -58 14 -28 14 -61 24 -72 24 -12 0 -4 -6
20 -15 22 -8 51 -23 65 -33 l24 -19 -30 -48 c-17 -28 -53 -65 -84 -86 -45 -32
-62 -38 -105 -38 -54 0 -60 3 -111 68 l-26 32 26 0 c52 0 92 25 115 73 12 25
28 48 36 51 7 2 19 15 26 28 11 21 9 20 -21 -5 -34 -29 -46 -29 -105 0 -16 9
-46 27 -65 42 -58 43 -102 72 -106 69 -6 -7 100 -87 163 -124 35 -20 63 -40
63 -45 0 -4 -12 -22 -27 -39 -26 -32 -27 -32 -105 -28 -43 2 -78 0 -78 -4 0
-5 6 -8 13 -8 25 0 94 -83 207 -249 49 -72 60 -101 40 -101 -6 0 -35 -18 -64
-39 l-53 -39 -24 26 c-14 15 -33 32 -43 37 -16 9 -17 14 -7 32 6 12 11 42 11
67 0 37 -4 48 -27 64 -52 36 -58 36 -20 0 28 -26 37 -43 37 -67 0 -38 -15 -70
-43 -92 -20 -16 -23 -15 -70 38 -28 30 -63 61 -78 69 -16 8 -29 19 -29 24 0 5
23 32 50 59 28 28 50 59 50 70 0 19 19 69 43 116 15 29 9 153 -10 189 -8 17
-30 49 -49 72 l-33 41 39 22 c22 12 63 26 92 31 75 12 82 14 90 25 4 6 75 11
170 12 114 1 164 5 166 13 3 7 12 9 26 5 11 -4 82 -14 156 -22z m930 3 l45
-16 -50 5 c-43 4 -47 3 -25 -7 14 -6 38 -17 54 -25 16 -7 44 -13 62 -13 37 0
189 -96 189 -120 0 -7 -13 -18 -30 -23 -16 -5 -37 -16 -46 -23 -45 -39 -99 1
-99 74 0 45 -12 72 -32 72 -5 0 -4 -9 2 -19 16 -31 12 -61 -7 -61 -17 -1 -17
-1 0 -11 27 -16 39 -56 26 -82 -17 -32 -28 -36 -79 -32 -43 4 -42 4 8 -6 51
-10 55 -10 81 15 23 22 31 24 63 17 32 -8 37 -6 46 15 8 17 22 24 56 29 45 7
46 7 115 -56 53 -50 66 -66 54 -72 -9 -6 -21 -3 -32 7 -20 18 -95 22 -135 6
-15 -5 -32 -24 -41 -46 -23 -55 -18 -64 10 -19 28 45 43 53 103 54 36 1 48 -4
73 -31 25 -29 29 -30 29 -12 0 11 3 24 7 27 8 9 67 -27 116 -70 20 -18 42 -33
47 -33 6 0 10 -7 10 -16 0 -12 -7 -14 -29 -9 -26 5 -29 4 -24 -14 5 -19 7 -20
40 -6 46 19 46 19 28 -9 -8 -13 -33 -31 -55 -41 -22 -10 -40 -21 -40 -24 0
-11 -54 -9 -75 2 -11 7 -42 16 -70 22 -44 9 -50 13 -53 37 -3 22 4 32 37 54
23 15 47 24 57 20 10 -4 14 -2 11 6 -5 17 -45 11 -77 -12 -14 -9 -43 -21 -65
-25 -22 -4 -43 -12 -47 -18 -5 -8 -15 -7 -35 3 -45 23 -46 23 -39 11 14 -22
-10 -11 -44 21 -24 22 -43 31 -61 29 -14 -1 -50 7 -80 18 -66 24 -177 41 -256
40 -56 -1 -55 -1 32 -14 93 -13 204 -54 313 -116 97 -54 245 -151 286 -187
l38 -34 -33 7 c-19 5 -70 14 -114 20 -55 9 -69 14 -45 15 28 2 22 4 -25 11
-33 5 -78 6 -100 4 -23 -3 -74 1 -114 10 -40 8 -90 15 -112 15 -21 0 -39 5
-39 11 0 7 -11 8 -30 4 -41 -9 -122 4 -113 19 3 6 0 6 -8 -1 -8 -8 -42 -13
-87 -13 l-74 0 58 66 c32 37 49 61 39 54 -11 -7 -40 -37 -65 -66 l-45 -54 -87
3 c-84 2 -88 3 -122 36 -52 50 -80 123 -73 190 8 76 57 170 117 224 78 70 258
154 380 177 63 12 226 4 280 -14z m-3576 -38 c12 -104 8 -135 -17 -142 -12 -3
-32 -14 -44 -26 -12 -11 -24 -20 -27 -20 -9 0 -35 86 -39 131 l-4 46 56 31
c31 17 59 32 62 32 3 0 9 -24 13 -52z m-265 -210 c12 -37 12 -39 -19 -65 -17
-14 -45 -50 -62 -80 -16 -29 -36 -53 -44 -53 -27 0 -47 69 -41 143 4 62 8 72
38 101 19 18 49 42 67 55 41 28 36 39 -8 16 l-31 -16 33 60 33 60 11 -92 c6
-51 16 -109 23 -129z m5056 131 c80 -35 343 -228 411 -300 74 -79 94 -110 94
-140 0 -21 -4 -28 -12 -23 -6 4 0 -8 15 -27 20 -26 28 -53 35 -114 13 -111 15
-192 4 -199 -6 -3 -8 14 -6 42 l4 47 -19 -55 c-10 -30 -22 -54 -26 -53 -5 1
-18 23 -29 50 -29 66 -35 74 -54 71 -18 -3 -90 36 -109 59 -7 9 -13 10 -17 4
-4 -6 8 -18 26 -27 18 -9 53 -35 78 -58 24 -22 37 -32 27 -20 -19 23 -22 34
-7 34 5 0 21 -23 35 -51 32 -63 31 -111 -3 -119 -13 -3 -22 -9 -21 -15 5 -16
-131 -67 -178 -68 -24 0 -44 -6 -47 -13 -8 -20 -90 -27 -159 -14 -90 17 -92
19 -76 71 l14 44 50 -2 c50 -2 43 6 -17 21 -35 8 -64 -22 -73 -75 -9 -53 -28
-66 -54 -38 -16 18 -21 19 -21 7 0 -25 27 -41 60 -36 64 10 9 -15 -62 -28
-127 -23 -136 -21 -197 41 l-55 55 -42 -35 c-23 -19 -46 -35 -50 -35 -4 0 -18
10 -31 22 -33 31 -28 10 8 -32 l29 -35 40 45 39 45 58 -57 c55 -55 56 -58 31
-58 -14 0 -53 7 -86 15 -37 10 -69 12 -83 7 -13 -4 -96 -7 -184 -6 -185 2
-295 18 -687 98 -329 67 -636 102 -823 92 -217 -11 -501 -74 -586 -130 -21
-15 -39 -22 -39 -16 0 17 73 110 121 156 97 91 301 207 419 238 229 61 278 68
480 68 273 0 492 -25 880 -102 163 -33 475 -56 600 -45 189 16 356 62 447 122
81 54 66 64 -41 26 -22 -7 -41 -11 -44 -8 -3 3 8 19 24 37 29 32 22 30 -29 -5
-24 -16 -40 -19 -93 -14 -58 4 -94 18 -94 36 0 4 29 19 65 35 48 21 65 33 65
47 0 11 11 41 24 67 l24 48 -26 2 c-20 2 -23 -1 -15 -9 9 -9 8 -22 -4 -53 -21
-54 -30 -64 -76 -87 -59 -31 -84 -23 -139 46 -53 65 -57 76 -29 68 29 -7 96
15 117 39 l19 22 -29 -22 c-22 -17 -42 -22 -85 -22 l-57 0 -45 63 c-64 87 -63
83 -39 132 33 68 82 98 240 144 27 8 68 1 115 -20z m-335 -21 c-8 -7 -20 -20
-28 -28 -11 -13 -12 -12 -3 7 9 18 23 29 41 32 2 1 -2 -5 -10 -11z m49 -1 c-2
-1 -13 -9 -24 -17 -19 -14 -19 -14 -6 3 7 9 18 17 24 17 6 0 8 -1 6 -3z
m-4443 -75 c-3 -6 -15 -8 -26 -5 -22 6 -60 -21 -60 -42 0 -15 -28 -28 -41 -19
-16 9 -10 40 11 59 35 32 135 38 116 7z m-143 -105 c-3 -5 -25 -18 -49 -29
-41 -18 -46 -18 -61 -3 -15 15 -14 18 4 37 29 28 84 39 100 20 7 -8 10 -19 6
-25z m410 2 c79 -12 139 -38 282 -126 81 -50 119 -65 355 -137 128 -39 214
-113 248 -215 19 -55 13 -181 -8 -181 -4 0 -21 28 -38 63 -31 62 -121 165
-211 240 -67 56 -72 44 -9 -20 74 -77 81 -93 80 -183 -1 -70 -29 -196 -31
-142 -1 31 -47 119 -85 163 -17 21 -44 62 -59 93 -15 30 -42 67 -58 81 -30 25
-73 33 -83 16 -4 -5 3 -7 14 -4 26 7 64 -27 92 -81 26 -52 23 -181 -7 -240
-26 -51 -38 -54 -53 -14 -16 43 -38 68 -83 96 -20 12 -55 42 -78 67 -34 37
-41 52 -42 87 l-1 43 -12 -35 -13 -35 -7 28 c-5 20 -17 32 -46 43 -44 18 -48
25 -25 44 26 21 16 32 -10 12 -15 -12 -34 -18 -45 -15 -12 3 -20 0 -20 -7 0
-7 -10 -4 -27 8 -18 12 -54 21 -97 25 -38 4 -74 11 -80 17 -6 6 -16 4 -28 -7
-27 -24 -126 -42 -161 -30 -26 9 -28 13 -23 40 4 17 14 40 24 52 9 12 2 6 -16
-13 -28 -28 -33 -40 -30 -67 4 -32 1 -36 -46 -61 -28 -15 -69 -45 -92 -66 -23
-21 -44 -38 -47 -38 -15 0 8 71 51 160 37 76 61 110 122 171 91 92 155 136
229 160 67 22 79 22 174 8z m-538 -45 c14 -36 15 -51 6 -70 -15 -33 -91 -114
-106 -114 -15 0 -35 51 -35 87 0 49 66 143 101 143 10 0 23 -17 34 -46z m2876
16 c3 -25 2 -37 -5 -68 -4 -18 -12 -30 -17 -26 -5 3 -9 1 -9 -5 0 -5 5 -13 10
-16 14 -9 4 -22 -42 -55 -32 -23 -44 -27 -59 -19 -19 9 -18 12 8 57 15 26 42
64 60 85 18 20 33 42 33 47 0 13 20 13 21 0z m-3020 -168 c19 -42 24 -64 18
-81 -10 -27 -33 -51 -49 -51 -6 0 -8 -5 -4 -11 5 -8 1 -8 -14 0 -39 21 -43 79
-10 152 13 27 25 49 28 49 3 -1 17 -27 31 -58z m4249 8 c0 -11 -4 -20 -9 -20
-13 0 -32 26 -24 33 13 14 33 6 33 -13z m-2014 -179 c73 -56 83 -66 99 -104
15 -35 14 -39 -9 -86 -28 -54 -59 -71 -130 -71 -23 0 -60 -9 -83 -20 -24 -10
-43 -16 -43 -12 0 4 -10 -8 -21 -25 -24 -38 -40 -40 -113 -16 -89 28 -96 33
-96 68 0 17 5 36 12 43 6 6 9 15 5 19 -4 3 -15 -12 -25 -35 -9 -23 -21 -42
-27 -42 -19 0 -74 39 -85 60 -15 28 8 54 93 105 58 34 64 36 99 24 20 -6 52
-9 70 -6 33 7 33 6 -27 -50 -32 -31 -55 -54 -50 -52 46 21 64 35 79 60 9 16
20 29 24 29 4 0 22 14 40 30 41 35 70 46 86 31 6 -7 13 -52 14 -101 2 -50 7
-90 11 -90 8 0 2 143 -9 192 -6 30 -4 40 13 57 27 27 27 27 73 -8z m2371 -43
c-3 -7 -5 -2 -5 12 0 14 2 19 5 13 2 -7 2 -19 0 -25z m-3943 -42 c35 -14 67
-22 70 -19 8 8 75 -37 92 -62 17 -26 7 -61 -30 -106 -13 -16 -26 -34 -29 -41
-6 -16 -76 60 -77 83 0 9 -9 27 -20 40 -19 24 -19 24 -1 -26 31 -82 31 -107
-2 -123 -15 -7 -49 -15 -76 -17 -43 -4 -51 -1 -76 25 -27 28 -58 41 -52 22 3
-11 -151 -167 -158 -160 -3 3 -9 37 -12 75 -7 84 13 137 77 207 24 25 39 46
36 46 -14 0 -124 -90 -155 -127 -58 -69 -68 -81 -106 -132 -20 -28 -41 -49
-46 -45 -5 3 -9 29 -9 57 0 59 28 130 59 149 25 15 27 28 6 28 -22 0 -94 -68
-131 -125 -17 -27 -48 -68 -68 -90 l-35 -40 -1 30 c-1 94 76 192 185 234 33
13 80 36 105 51 58 36 131 59 233 75 121 19 150 18 221 -9z m1795 -35 l35 -29
-70 -66 c-38 -36 -72 -66 -76 -66 -4 0 -10 11 -14 25 -10 42 50 165 80 165 6
0 26 -13 45 -29z m-134 -188 c-6 -18 -74 -50 -122 -58 -58 -9 -153 3 -147 20
10 25 100 65 156 68 31 2 66 10 79 19 23 15 24 15 31 -11 5 -14 6 -31 3 -38z"/>
        <path d="M3587 4569 c6 -8 26 -23 45 -33 21 -13 29 -14 21 -5 -6 8 -26 23 -45
33 -21 13 -29 14 -21 5z"/>
        <path d="M3700 4497 c0 -3 17 -17 37 -33 20 -15 33 -23 29 -16 -8 13 -66 56
-66 49z"/>
        <path d="M3815 4406 c39 -36 109 -86 120 -86 3 0 -25 23 -62 51 -94 71 -104
77 -58 35z"/>
        <path d="M3682 3996 l-27 -29 35 20 c19 11 46 25 60 31 25 11 24 11 -8 9 -22
-1 -41 -11 -60 -31z"/>
        <path d="M4080 3965 c0 -2 10 -10 23 -16 20 -11 21 -11 8 4 -13 16 -31 23 -31
12z"/>
        <path d="M3355 3831 c-12 -5 9 -7 50 -4 91 6 105 11 30 12 -33 0 -69 -4 -80
-8z"/>
        <path d="M4597 3406 c-8 -19 27 -80 47 -84 22 -5 46 16 46 39 0 43 -79 81 -93
45z"/>
        <path d="M4455 3380 c-12 -4 -27 -16 -35 -26 -14 -18 -14 -18 4 -4 10 8 31 20
45 27 29 13 17 16 -14 3z"/>
        <path d="M4370 3351 c-12 -24 -13 -31 -1 -31 5 0 11 11 13 25 6 30 2 32 -12 6z"/>
        <path d="M2991 3724 c0 -11 3 -14 6 -6 3 7 2 16 -1 19 -3 4 -6 -2 -5 -13z"/>
        <path d="M5498 3603 c6 -2 18 -2 25 0 6 3 1 5 -13 5 -14 0 -19 -2 -12 -5z"/>
        <path d="M5305 3581 c9 -16 71 -24 92 -12 15 9 14 10 -12 8 -16 -1 -43 2 -58
6 -19 5 -26 4 -22 -2z"/>
        <path d="M5165 3533 c6 -6 33 -23 60 -38 28 -16 46 -24 40 -18 -5 6 -32 23
-60 38 -27 16 -45 24 -40 18z"/>
        <path d="M6546 3496 c3 -9 -5 -22 -21 -32 -14 -9 -23 -19 -20 -22 8 -8 55 39
55 55 0 7 -4 13 -10 13 -5 0 -7 -6 -4 -14z"/>
        <path d="M6460 3185 c-8 -9 -8 -15 -2 -15 12 0 26 19 19 26 -2 2 -10 -2 -17
-11z"/>
        <path d="M6558 3013 c6 -2 18 -2 25 0 6 3 1 5 -13 5 -14 0 -19 -2 -12 -5z"/>
        <path d="M6618 3003 c6 -2 18 -2 25 0 6 3 1 5 -13 5 -14 0 -19 -2 -12 -5z"/>
        <path d="M7891 3301 c-13 -3 -31 -18 -39 -31 l-16 -25 25 23 c32 28 83 29 129
1 26 -16 31 -17 20 -5 -16 21 -64 46 -82 45 -7 -1 -24 -4 -37 -8z"/>
        <path d="M8190 3136 c0 -2 8 -10 18 -17 15 -13 16 -12 3 4 -13 16 -21 21 -21
13z"/>
        <path d="M8099 2973 c-12 -16 -12 -17 1 -7 8 7 24 14 35 17 19 4 19 5 -1 6
-12 0 -28 -7 -35 -16z"/>
        <path d="M8270 2902 c0 -13 41 -64 47 -58 3 3 -6 19 -21 36 -14 17 -26 27 -26
22z"/>
        <path d="M6212 2790 c0 -14 2 -19 5 -12 2 6 2 18 0 25 -3 6 -5 1 -5 -13z"/>
        <path d="M6436 2722 c-3 -9 -2 -37 3 -62 l9 -45 1 43 c1 24 6 52 11 63 8 15 7
19 -4 19 -8 0 -17 -8 -20 -18z"/>
        <path d="M6847 2721 c12 -13 43 -36 70 -50 42 -23 53 -36 87 -104 21 -43 40
-77 42 -74 2 2 -7 37 -21 77 -14 40 -25 83 -26 94 0 12 -3 15 -6 9 -2 -7 -11
-13 -20 -13 -15 0 -93 42 -128 69 -17 13 -17 12 2 -8z"/>
        <path d="M7325 2680 c3 -5 8 -10 11 -10 2 0 4 5 4 10 0 6 -5 10 -11 10 -5 0
-7 -4 -4 -10z"/>
        <path d="M7599 2619 c18 -11 35 -18 38 -15 5 5 -50 36 -64 36 -4 0 7 -9 26
-21z"/>
        <path d="M3030 3175 c0 -8 2 -15 4 -15 2 0 6 7 10 15 3 8 1 15 -4 15 -6 0 -10
-7 -10 -15z"/>
        <path d="M3460 3130 c-9 -6 -10 -10 -3 -10 6 0 15 5 18 10 8 12 4 12 -15 0z"/>
        <path d="M3156 3103 c-6 -14 -5 -15 5 -6 7 7 10 15 7 18 -3 3 -9 -2 -12 -12z"/>
        <path d="M3120 3065 c-7 -9 -11 -17 -9 -20 3 -2 10 5 17 15 14 24 10 26 -8 5z"/>
        <path d="M3630 2949 c0 -5 5 -7 10 -4 6 3 10 8 10 11 0 2 -4 4 -10 4 -5 0 -10
-5 -10 -11z"/>
        <path d="M3639 2928 c-18 -15 -59 -84 -59 -100 0 -21 32 16 55 64 13 26 22 48
21 48 -1 0 -9 -6 -17 -12z"/>
        <path d="M4625 2760 c10 -11 20 -20 23 -20 3 0 -3 9 -13 20 -10 11 -20 20 -23
20 -3 0 3 -9 13 -20z"/>
        <path d="M5795 2310 c-196 -21 -347 -91 -474 -221 -84 -86 -170 -265 -189
-394 -10 -69 3 -197 28 -277 55 -179 235 -346 430 -401 215 -60 405 -42 632
62 52 24 45 4 64 189 3 28 3 52 0 52 -4 0 -23 -11 -44 -24 -67 -44 -158 -69
-257 -70 -81 0 -97 3 -157 31 -116 55 -205 159 -243 285 -22 74 -20 266 3 335
45 129 148 225 262 244 131 22 230 -8 317 -93 29 -29 54 -50 57 -47 2 2 7 66
11 141 l8 136 -71 21 c-124 37 -234 46 -377 31z m202 -27 c-7 -7 -139 -5 -146
3 -2 2 31 4 74 4 43 0 75 -3 72 -7z m-237 -13 c0 -5 -19 -14 -42 -20 -98 -25
-222 -94 -296 -164 -62 -57 -129 -183 -147 -273 -5 -23 -10 -30 -22 -26 -8 3
-19 0 -25 -8 -21 -31 5 59 38 129 67 145 229 279 419 348 71 26 75 27 75 14z
m-260 -1103 c17 -12 11 -10 -17 4 -23 12 -59 40 -80 62 l-38 40 55 -44 c31
-24 67 -52 80 -62z m96 -43 c21 -9 66 -22 99 -29 43 -10 51 -14 29 -14 -37 -1
-160 35 -169 49 -8 13 -4 13 41 -6z m501 -20 c-3 -3 -12 -4 -19 -1 -8 3 -5 6
6 6 11 1 17 -2 13 -5z m-284 -31 c-7 -2 -21 -2 -30 0 -10 3 -4 5 12 5 17 0 24
-2 18 -5z"/>
        <path d="M6779 2256 c-101 -22 -247 -98 -321 -170 -146 -141 -216 -385 -173
-610 20 -108 32 -139 89 -226 57 -86 163 -183 242 -221 202 -96 488 -101 674
-13 103 48 223 171 275 279 102 211 80 498 -50 680 -92 129 -210 223 -328 261
-68 22 -105 27 -212 30 -85 2 -153 -1 -196 -10z m351 -48 c162 -31 321 -181
385 -363 21 -59 25 -88 25 -190 0 -66 -7 -150 -15 -187 -16 -78 -83 -214 -122
-249 l-27 -24 17 25 c63 90 81 124 104 195 23 68 27 98 27 200 0 135 -15 203
-66 295 -97 173 -230 271 -394 291 -101 13 -222 -1 -262 -30 -20 -14 -45 -21
-74 -21 -24 0 -54 -7 -66 -16 -13 -9 -61 -64 -107 -122 -61 -77 -89 -122 -100
-159 -9 -29 -20 -54 -25 -54 -6 -1 -18 -2 -27 -2 -10 -1 -22 -6 -26 -12 -20
-24 6 66 38 132 57 121 171 224 301 272 102 39 275 46 414 19z m-1 -105 c40
-27 126 -147 133 -186 10 -52 -10 -47 -32 8 -30 74 -90 149 -148 186 -40 25
-42 29 -18 23 16 -4 46 -18 65 -31z m-96 -37 c68 -28 147 -154 173 -275 17
-80 18 -299 3 -373 -13 -62 -56 -151 -95 -197 -38 -46 -80 -64 -145 -64 -89 0
-157 53 -222 173 -58 106 -70 166 -71 325 0 135 1 143 32 214 41 97 88 164
131 190 43 24 144 28 194 7z m308 -900 c-23 -24 -139 -82 -147 -73 -3 2 19 14
48 27 29 12 67 33 83 46 38 30 44 30 16 0z m-621 -76 c8 -5 11 -10 5 -10 -5 0
-17 5 -25 10 -8 5 -10 10 -5 10 6 0 17 -5 25 -10z"/>
        <path d="M8060 2260 c-94 -14 -164 -41 -236 -89 -83 -57 -128 -114 -150 -189
-14 -48 -15 -66 -5 -122 26 -140 103 -211 381 -350 111 -55 216 -123 229 -149
17 -32 13 -86 -9 -114 -29 -36 -82 -51 -180 -50 -144 1 -243 41 -356 145 l-42
38 -6 -32 c-8 -46 -36 -259 -36 -279 0 -21 29 -33 173 -71 114 -30 133 -32
287 -32 264 0 380 38 521 171 83 79 104 126 103 233 0 93 -30 156 -102 222
-48 42 -257 159 -372 207 -199 83 -268 169 -190 235 43 36 96 47 182 40 118
-11 187 -52 263 -157 l21 -28 27 133 c38 184 38 183 -23 203 -119 40 -337 55
-480 35z m365 -38 c22 -6 -7 -10 -110 -15 -141 -7 -314 -38 -385 -69 -93 -41
-159 -115 -178 -199 l-10 -44 -1 41 c-1 47 36 128 76 166 44 41 153 96 234
118 63 17 94 20 209 15 74 -2 149 -8 165 -13z m-360 -105 c-11 -7 -37 -29 -59
-50 -36 -35 -38 -40 -33 -83 6 -59 45 -106 124 -153 38 -22 62 -43 63 -53 0
-23 -9 -22 -40 2 -14 11 -29 20 -33 20 -19 0 -99 66 -118 97 -44 70 -16 160
64 208 23 14 44 25 47 24 3 0 -4 -6 -15 -12z m150 -347 c3 -5 -3 -7 -12 -6
-10 2 -21 -2 -25 -8 -5 -6 -8 -2 -8 11 0 16 5 20 20 16 11 -3 23 -9 25 -13z
m216 -104 c31 -21 6 -29 -37 -11 -46 19 -65 34 -58 46 5 9 61 -11 95 -35z
m-646 -576 c13 -6 15 -9 5 -9 -8 0 -22 4 -30 9 -18 12 -2 12 25 0z m52 -16
c-3 -3 -12 -4 -19 -1 -8 3 -5 6 6 6 11 1 17 -2 13 -5z m40 -10 c-3 -3 -12 -4
-19 -1 -8 3 -5 6 6 6 11 1 17 -2 13 -5z m88 -14 c27 -7 27 -8 5 -8 -14 0 -38
4 -55 8 -27 7 -27 8 -5 8 14 0 39 -4 55 -8z"/>
        <path d="M2622 2115 c2 -41 2 -75 0 -75 -2 0 -24 16 -49 35 -54 41 -127 70
-218 86 -191 33 -353 -38 -433 -189 -53 -101 -72 -181 -72 -306 1 -128 10
-177 51 -262 65 -138 186 -224 351 -249 68 -11 75 -13 37 -14 -35 -1 -51 -7
-69 -26 -17 -18 -20 -25 -9 -26 8 -1 -2 -5 -21 -9 -28 -6 -20 -8 38 -9 86 -1
225 19 197 29 -11 4 -26 19 -35 35 -15 27 -14 29 13 59 43 45 49 70 48 192 -1
123 -7 149 -52 205 l-31 39 187 0 187 0 -27 -32 -26 -31 3 -217 3 -217 -95
-22 c-441 -103 -674 -57 -872 172 -82 96 -122 186 -139 314 -9 73 -14 90 -28
89 -32 -2 -39 -109 -16 -221 38 -181 186 -360 358 -434 170 -73 485 -63 737
22 l95 32 -4 232 -4 231 25 45 25 44 -66 7 c-79 7 -270 6 -365 -3 l-69 -6 47
-33 c71 -51 79 -75 84 -234 4 -135 4 -137 -21 -162 -74 -74 -281 -18 -369 99
-21 28 -53 84 -71 125 -32 74 -32 76 -32 235 l0 160 36 76 c63 132 140 198
257 219 124 22 241 -12 362 -105 32 -25 61 -45 64 -45 3 0 6 50 6 110 0 74 -4
110 -11 110 -8 0 -10 -24 -7 -75z"/>
        <path d="M3118 1830 c2 -49 8 -90 13 -90 10 0 12 101 3 149 -12 58 -19 31 -16
-59z"/>
        <path d="M3070 1900 c-8 -5 -10 -10 -5 -10 6 0 17 5 25 10 8 5 11 10 5 10 -5
0 -17 -5 -25 -10z"/>
        <path d="M3378 1893 c6 -2 18 -2 25 0 6 3 1 5 -13 5 -14 0 -19 -2 -12 -5z"/>
        <path d="M3459 1855 c-11 -16 -39 -134 -39 -161 0 -28 -7 -29 -34 -9 -31 24
-96 18 -157 -12 -44 -23 -59 -37 -79 -78 -24 -47 -25 -61 -29 -245 -2 -117 -7
-186 -12 -173 -8 22 -24 23 -74 4 -59 -23 -83 -28 -99 -19 -13 7 -16 4 -17
-17 -1 -14 -2 -31 -3 -37 -1 -9 26 -15 89 -19 l90 -5 -109 -2 -108 -2 17 27
c17 25 18 53 12 360 -4 284 -8 337 -21 358 -9 14 -25 25 -36 25 -20 0 -20 0 0
-32 19 -32 20 -45 14 -378 -7 -341 -7 -345 -30 -376 l-23 -32 22 -6 c32 -9
437 -7 437 2 -1 4 -18 19 -38 33 -54 37 -62 73 -62 290 0 208 8 239 71 272 32
17 104 19 173 6 17 -4 22 7 38 86 17 84 21 163 7 140z"/>
        <path d="M4264 1839 c32 -25 62 -83 157 -302 137 -314 180 -427 169 -447 -13
-24 -112 -89 -172 -112 -27 -10 -83 -21 -124 -25 -41 -3 -74 -7 -74 -9 0 -14
51 -113 61 -120 17 -11 126 -7 199 7 60 12 122 44 185 95 61 50 159 221 241
422 124 307 159 385 197 450 38 65 37 75 -7 41 -36 -28 -92 -143 -247 -504
-134 -312 -219 -401 -429 -455 l-85 -22 -29 33 -30 33 60 11 c32 6 69 15 81
19 22 7 22 7 7 -29 l-14 -36 27 7 c75 18 132 47 172 88 50 51 37 68 -26 35
-40 -22 -93 -41 -93 -34 0 3 16 15 35 28 60 41 125 107 125 128 0 10 -48 121
-106 247 -202 431 -226 472 -279 472 l-28 0 27 -21z"/>
        <path d="M4560 1853 c0 -3 25 -59 54 -124 30 -64 69 -154 87 -200 18 -46 40
-97 50 -113 l18 -29 10 24 c6 13 33 80 60 149 28 69 62 154 77 189 29 71 23
111 -16 111 -24 0 -24 1 -4 -39 14 -29 14 -36 0 -79 -29 -85 -120 -312 -126
-312 -3 0 -11 12 -17 28 -6 15 -36 81 -66 147 -30 66 -67 150 -82 188 -15 37
-31 67 -36 67 -5 0 -9 -3 -9 -7z"/>
        <path d="M3810 1792 c-49 -26 -90 -108 -90 -179 l0 -53 168 2 167 3 -1 60 c-1
114 -54 176 -153 183 -41 2 -65 -2 -91 -16z m150 -50 c43 -21 70 -72 70 -129
l0 -43 -141 0 -141 0 7 43 c9 56 34 97 75 124 40 27 83 29 130 5z"/>
        <path d="M3589 1768 c-86 -79 -131 -201 -132 -353 0 -80 3 -98 30 -155 37 -80
71 -121 147 -177 84 -62 174 -88 282 -80 95 7 146 26 233 87 60 42 111 103
136 164 21 50 19 52 -20 17 -157 -138 -376 -112 -467 55 -14 27 -29 66 -33 87
l-7 37 245 0 c292 0 307 2 307 40 0 46 -30 152 -55 196 -35 60 -56 72 -29 16
23 -46 44 -131 44 -178 l0 -24 -272 -2 -273 -3 1 -55 c0 -81 33 -148 96 -194
71 -53 130 -77 212 -86 l71 -7 -62 -2 c-34 0 -65 -5 -68 -11 -3 -5 -14 -10
-24 -10 -10 0 -26 -9 -36 -20 -11 -12 -33 -21 -54 -22 -20 -1 0 -5 44 -8 l80
-6 -86 -2 c-120 -3 -165 15 -254 99 -45 43 -85 93 -106 131 -33 62 -33 65 -34
188 0 145 13 186 85 264 50 54 49 60 -1 14z m592 -588 c-13 -11 -28 -20 -35
-20 -6 0 3 9 19 20 38 25 47 25 16 0z m-76 -60 c-3 -5 -12 -10 -18 -10 -7 0
-6 4 3 10 19 12 23 12 15 0z"/>
        <path d="M2095 1090 c-16 -7 -14 -9 15 -9 19 0 42 4 50 9 11 7 8 10 -15 9 -16
0 -39 -4 -50 -9z"/>
        <path d="M4070 785 c-184 -7 -499 -18 -700 -24 -468 -15 -1030 -40 -1089 -48
l-46 -6 55 -13 c231 -55 586 -118 810 -144 52 -6 127 -16 165 -23 l70 -11 -65
-7 c-36 -4 -164 -7 -285 -8 -160 -2 -213 -5 -195 -12 73 -30 423 -123 592
-158 465 -96 491 -101 753 -130 353 -40 495 -46 1015 -45 524 1 632 6 1045 55
260 30 502 73 765 135 184 43 551 146 545 153 -3 2 -33 3 -68 2 -98 -4 -557
11 -557 18 0 4 64 15 143 24 336 42 996 153 1014 170 3 4 -18 7 -48 7 -30 0
-128 5 -219 10 -850 49 -3028 82 -3700 55z m-197 -106 c38 -10 45 -25 27 -58
-9 -17 -14 -17 -62 -6 -52 12 -89 7 -102 -14 -9 -15 31 -37 91 -51 92 -21 129
-70 98 -130 -24 -47 -67 -63 -165 -64 -108 -1 -140 7 -140 37 0 43 13 50 69
38 71 -15 106 -14 121 4 19 23 -3 42 -66 56 -97 22 -136 61 -120 123 15 59
146 94 249 65z m574 -16 c84 -44 108 -160 48 -238 -71 -95 -238 -99 -332 -10
-41 40 -43 44 -43 100 0 90 42 142 135 166 49 13 151 3 192 -18z m808 21 c15
-4 33 -36 65 -114 25 -60 48 -110 51 -110 3 0 25 50 49 110 l43 110 54 0 c36
0 53 -4 53 -12 0 -7 -28 -78 -63 -158 l-63 -145 -74 0 -74 0 -68 150 c-37 83
-67 153 -68 157 0 13 61 22 95 12z m785 -29 l0 -35 -84 0 c-80 0 -84 -1 -88
-24 -4 -20 0 -25 25 -30 16 -3 54 -6 83 -6 53 0 54 0 54 -30 l0 -29 -82 -3
c-81 -3 -83 -4 -86 -29 l-3 -27 96 -7 96 -7 -3 -31 -3 -32 -141 -3 -141 -3 -7
32 c-8 42 -8 284 1 292 3 4 69 7 145 7 l138 0 0 -35z m515 7 c40 -24 54 -72
32 -117 -9 -18 -25 -36 -36 -40 -29 -9 -27 -18 19 -86 l41 -59 -55 0 -55 0
-38 58 c-52 77 -76 78 -83 2 l-5 -55 -52 -3 -53 -3 0 160 0 160 88 4 c114 5
160 0 197 -21z m-1711 -4 c3 -13 6 -66 6 -119 l0 -96 38 -7 c20 -3 56 -6 80
-6 41 0 42 -1 42 -35 l0 -35 -134 0 -133 0 -7 76 c-3 42 -3 114 1 160 l6 84
47 0 c41 0 49 -3 54 -22z"/>
        <path d="M4256 599 c-22 -17 -26 -28 -26 -70 0 -64 11 -85 54 -99 40 -13 76
-6 105 21 32 30 30 111 -4 144 -31 32 -91 34 -129 4z"/>
        <path d="M6380 580 c0 -38 2 -40 31 -40 41 0 69 16 69 40 0 24 -28 40 -69 40
-29 0 -31 -2 -31 -40z"/>
    </g>
</svg>